<svg width="18" height="26" viewBox="0 0 18 26" fill="none" xmlns="http://www.w3.org/2000/svg">
<path d="M9 1C13.5614 1 17.25 4.68864 17.25 9.25C17.25 10.7895 16.7342 12.5511 15.9268 14.3535C15.1222 16.1493 14.0452 17.9496 12.9609 19.5566C11.8776 21.1623 10.7924 22.5656 9.97852 23.5684C9.57372 24.0671 9.23629 24.4659 9 24.7402C8.76371 24.4659 8.42628 24.0671 8.02148 23.5684C7.20762 22.5656 6.1224 21.1623 5.03906 19.5566C3.95479 17.9496 2.87778 16.1493 2.07324 14.3535C1.26576 12.5511 0.75 10.7895 0.75 9.25C0.75 4.68864 4.43864 1 9 1ZM9 2.5C5.27386 2.5 2.25 5.52386 2.25 9.25C2.25 11.168 3.22017 13.5175 4.46289 15.752C5.7172 18.0072 7.29629 20.2267 8.60547 21.9072L8.99805 22.4111L9.39258 21.9092C10.7275 20.2153 12.3072 18.0051 13.5557 15.7568C14.7935 13.5279 15.75 11.1855 15.75 9.25C15.75 5.52386 12.7261 2.5 9 2.5ZM9 6.625C10.4497 6.625 11.625 7.80025 11.625 9.25C11.625 10.6997 10.4497 11.875 9 11.875C7.55025 11.875 6.375 10.6997 6.375 9.25C6.375 7.80025 7.55025 6.625 9 6.625Z" fill="#EE7919" stroke="#EE7919"/>
</svg>
