<svg width="24" height="24" viewBox="0 0 24 24" fill="none" xmlns="http://www.w3.org/2000/svg">
<path d="M2 1.25H6.375C6.78636 1.25 7.125 1.58864 7.125 2C7.125 3.61602 7.38326 5.16896 7.8623 6.61914C7.94333 6.88488 7.8824 7.17306 7.67188 7.38379L4.66504 10.3906L4.8291 10.7139C6.67743 14.3463 9.65432 17.31 13.2842 19.1699L13.6084 19.3359L16.6064 16.3379C16.7667 16.1857 16.9578 16.1123 17.1504 16.1123C17.2484 16.1123 17.3123 16.124 17.3516 16.1396L17.3809 16.1494C18.8313 16.6286 20.3966 16.8877 22 16.8877C22.4114 16.8877 22.75 17.2263 22.75 17.6377V22C22.75 22.4114 22.4114 22.75 22 22.75C10.5386 22.75 1.25 13.4614 1.25 2C1.25 1.58864 1.58864 1.25 2 1.25ZM2.78906 3.28418C2.90455 4.97777 3.23813 6.60839 3.76465 8.14941L4.02344 8.9082L6.2998 6.63184L6.21777 6.34863C5.92823 5.3473 5.74657 4.29533 5.67383 3.2168L5.64258 2.75H2.75195L2.78906 3.28418ZM21.25 18.3701L20.7842 18.3389C19.7184 18.2662 18.6647 18.0845 17.6357 17.7939L17.3555 17.7148L17.1475 17.9199L15.6475 19.4072L15.0693 19.9814L15.8428 20.2373C17.3931 20.7498 19.0221 21.0837 20.7158 21.1992L21.25 21.2354V18.3701Z" fill="#EE7919" stroke="#EE7919"/>
</svg>
